# xmcd
#
# Track frame offsets: 
#        183
#        16640
#        23565
#        45213
#        50695
#        57118
#        67595
#        86900
#        112083
#        118358
#        143133
#        151108
#        177768
#        187670
#        214300
#        226683
#
# Disc length: 3206 seconds
#
# Revision: 3
# Processed by: cddbd v1.5.2PL0 Copyright (c) Steve Scherf et al.
# Submitted via: ExactAudioCopy v0.95b4
#
DISCID=c20c8410
DTITLE=Ricciarelli, Carreras, Colin Davis - Puccini - La Bohème [CD
DTITLE=2)
DYEAR=1979
DGENRE=Opera
TTITLE0=Act III - Ohè, là, le guardie! - Aprite!
TTITLE1=Sa dirmi, scusi
TTITLE2=Mimì - Rodolfo m'ama e mi fugge
TTITLE3=Marcello. Finalmente!
TTITLE4=Mimì è una civetta
TTITLE5=Mimì è tanto malata!
TTITLE6=Donde lieta uscì
TTITLE7=Addio, dolce svegliare
TTITLE8=In un coupé?
TTITLE9=O Mimì, tu più non torni  --  Che ora sia
TTITLE10=Gavotta
TTITLE11=C'è Mimì...
TTITLE12=Vecchia zimarra, senti
TTITLE13=Sono andati
TTITLE14=Oh Dio! Mimì
TTITLE15=Che ha detto il medico?
EXTD=Sir Colin Davis, Orchestra and Chorus of the Royal Opera House, C
EXTD=ovent Garden\r\nKatia Ricciarelli, José Carreras\r\nPhilips Class
EXTD=ics
EXTT0=
EXTT1=
EXTT2=
EXTT3=
EXTT4=
EXTT5=
EXTT6=
EXTT7=
EXTT8=
EXTT9=
EXTT10=
EXTT11=
EXTT12=
EXTT13=
EXTT14=
EXTT15=
PLAYORDER=
